<svg width="56" height="47" fill="none" xmlns="http://www.w3.org/2000/svg"><g filter="url(#filter0_i_131_319)"><path d="M45.57 29.5H23.668l-6.273-18h32.79c2.105 0 3.556 2.112 2.8 4.077l-4.615 12a3 3 0 01-2.8 1.923z" fill="#00A3FF"/><path d="M23.668 29.5H45.57a3 3 0 002.8-1.923l4.615-12c.756-1.965-.694-4.077-2.8-4.077h-32.79m6.273 18l-6.273-18m6.273 18v3a3 3 0 003 3h23.093m-32.367-24l-2.61-7.487A3 3 0 0011.953 2H7.161m6.922 14h-8.52m10.65 5h-6.39m7.572 4.5H2.9" stroke="#FAFF00" stroke-width="4" stroke-linecap="round" stroke-linejoin="round"/><path d="M30.656 43.5c0 1.322-1.161 2.5-2.728 2.5-1.566 0-2.727-1.178-2.727-2.5s1.16-2.5 2.727-2.5 2.728 1.178 2.728 2.5zm17.04 0c0 1.322-1.161 2.5-2.728 2.5-1.566 0-2.727-1.178-2.727-2.5S43.4 41 44.968 41s2.728 1.178 2.728 2.5z" stroke="#FAFF00" stroke-width="2"/></g><defs><filter id="filter0_i_131_319" x=".901" y="0" width="54.289" height="51" filterUnits="userSpaceOnUse" color-interpolation-filters="sRGB"><feFlood flood-opacity="0" result="BackgroundImageFix"/><feBlend in="SourceGraphic" in2="BackgroundImageFix" result="shape"/><feColorMatrix in="SourceAlpha" values="0 0 0 0 0 0 0 0 0 0 0 0 0 0 0 0 0 0 127 0" result="hardAlpha"/><feOffset dy="4"/><feGaussianBlur stdDeviation="2"/><feComposite in2="hardAlpha" operator="arithmetic" k2="-1" k3="1"/><feColorMatrix values="0 0 0 0 0 0 0 0 0 0 0 0 0 0 0 0 0 0 0.25 0"/><feBlend in2="shape" result="effect1_innerShadow_131_319"/></filter></defs></svg>