<svg width="41" height="38" fill="none" xmlns="http://www.w3.org/2000/svg"><g filter="url(#filter0_i_131_312)"><path d="M.738 34.045a1.854 1.854 0 000 2.738c.805.756 2.11.756 2.916 0L.738 34.045zm15.964-14.99L.738 34.045l2.916 2.738 15.964-14.99-2.916-2.738z" fill="#FAFF00"/></g><g filter="url(#filter1_i_131_312)"><path d="M38.536 13.5c0 6.235-5.42 11.5-12.377 11.5-6.957 0-12.378-5.265-12.378-11.5C13.781 7.266 19.202 2 26.16 2c6.956 0 12.377 5.266 12.377 11.5z" stroke="#FAFF00" stroke-width="4"/></g><defs><filter id="filter0_i_131_312" x=".134" y="19.055" width="19.484" height="22.295" filterUnits="userSpaceOnUse" color-interpolation-filters="sRGB"><feFlood flood-opacity="0" result="BackgroundImageFix"/><feBlend in="SourceGraphic" in2="BackgroundImageFix" result="shape"/><feColorMatrix in="SourceAlpha" values="0 0 0 0 0 0 0 0 0 0 0 0 0 0 0 0 0 0 127 0" result="hardAlpha"/><feOffset dy="4"/><feGaussianBlur stdDeviation="2"/><feComposite in2="hardAlpha" operator="arithmetic" k2="-1" k3="1"/><feColorMatrix values="0 0 0 0 0 0 0 0 0 0 0 0 0 0 0 0 0 0 0.25 0"/><feBlend in2="shape" result="effect1_innerShadow_131_312"/></filter><filter id="filter1_i_131_312" x="11.781" y="0" width="28.755" height="31" filterUnits="userSpaceOnUse" color-interpolation-filters="sRGB"><feFlood flood-opacity="0" result="BackgroundImageFix"/><feBlend in="SourceGraphic" in2="BackgroundImageFix" result="shape"/><feColorMatrix in="SourceAlpha" values="0 0 0 0 0 0 0 0 0 0 0 0 0 0 0 0 0 0 127 0" result="hardAlpha"/><feOffset dy="4"/><feGaussianBlur stdDeviation="2"/><feComposite in2="hardAlpha" operator="arithmetic" k2="-1" k3="1"/><feColorMatrix values="0 0 0 0 0 0 0 0 0 0 0 0 0 0 0 0 0 0 0.25 0"/><feBlend in2="shape" result="effect1_innerShadow_131_312"/></filter></defs></svg>